<svg xmlns="http://www.w3.org/2000/svg" version="1.1" xmlns:xlink="http://www.w3.org/1999/xlink"
     xmlns:svgjs="http://svgjs.dev/svgjs" width="1000" height="720" viewBox="0 0 1000 720">
    <g transform="matrix(1,0,0,1,0.2414583767161389,-0.15827038823340445)">
        <svg viewBox="0 0 340 245" data-background-color="#000000" preserveAspectRatio="xMidYMid meet" height="720"
             width="1000" xmlns="http://www.w3.org/2000/svg" xmlns:xlink="http://www.w3.org/1999/xlink">
            <g id="tight-bounds" transform="matrix(1,0,0,1,-0.08190561676025254,0.05385589599609375)">
                <svg viewBox="0 0 340.1636047363281 244.8922882080078" height="244.8922882080078"
                     width="340.1636047363281">
                    <g>
                        <svg></svg>
                    </g>
                    <g>
                        <svg viewBox="0 0 340.1636047363281 244.8922882080078" height="244.8922882080078"
                             width="340.1636047363281">
                            <g transform="matrix(1,0,0,1,-27.678190231323242,-2.3077392578125)">
                                <path xmlns="http://www.w3.org/2000/svg"
                                      d="M27.678 244.892v-242.584h340.164v242.584l-8.72 0 0-5.96h2.759v-230.664h-328.242v230.664h16.478l0 5.96z"
                                      fill="#d0d0d0" fill-rule="nonzero" stroke="none" stroke-width="1"
                                      stroke-linecap="butt" stroke-linejoin="miter" stroke-miterlimit="10"
                                      stroke-dasharray="" stroke-dashoffset="0" font-family="none" font-weight="none"
                                      font-size="none" text-anchor="none" style="mix-blend-mode: normal"
                                      data-fill-palette-color="tertiary"></path>
                                <g>
                                    <path xmlns="http://www.w3.org/2000/svg"
                                          d="M67.998 233.338h5.139v1.772h-1.593v10.118h1.593v1.773h-5.139v-1.773h1.594v-10.118h-1.594zM80.865 236.624c1.115 0 1.992 0.299 2.629 0.896 0.637 0.598 0.956 1.474 0.956 2.629v0 6.852h-1.872v-6.513c0-1.58-0.717-2.37-2.151-2.37v0c-0.478 0-0.923 0.126-1.335 0.378-0.412 0.252-0.744 0.594-0.996 1.024-0.252 0.433-0.378 0.908-0.378 1.426v0 6.055h-1.872v-10.178h1.354l0.259 1.494c0.85-1.129 1.985-1.693 3.406-1.693zM92.676 236.624c1.115 0 1.992 0.299 2.629 0.896 0.637 0.598 0.956 1.474 0.956 2.629v0 6.852h-1.872v-6.513c0-1.58-0.717-2.37-2.151-2.37v0c-0.478 0-0.923 0.126-1.335 0.378-0.412 0.252-0.744 0.594-0.996 1.024-0.252 0.433-0.378 0.908-0.378 1.426v0 6.055h-1.872v-10.178h1.354l0.259 1.494c0.85-1.129 1.985-1.693 3.406-1.693zM103.531 236.624c1.421 0 2.556 0.438 3.405 1.315 0.85 0.876 1.275 2.078 1.275 3.605v0 0.737c0 1.527-0.418 2.729-1.255 3.604-0.837 0.876-1.978 1.315-3.425 1.315v0c-1.447 0-2.589-0.438-3.426-1.315-0.837-0.876-1.255-2.078-1.255-3.604v0-0.737c0-1.527 0.425-2.729 1.275-3.605 0.85-0.876 1.985-1.315 3.406-1.315zM103.531 238.118c-0.89 0-1.58 0.305-2.072 0.916-0.491 0.611-0.737 1.507-0.737 2.689v0 0.378c0 1.155 0.243 2.045 0.729 2.669 0.483 0.624 1.176 0.936 2.079 0.936v0c0.876 0 1.564-0.309 2.064-0.928 0.497-0.616 0.745-1.508 0.745-2.677v0-0.378c0-1.155-0.242-2.045-0.725-2.669-0.486-0.624-1.18-0.936-2.083-0.936zM117.373 236.823h1.832l-3.864 10.178h-1.991l-3.864-10.178h1.991l2.908 7.788h0.08zM125.101 236.624c1.341 0 2.341 0.266 2.999 0.797 0.656 0.531 0.984 1.301 0.984 2.31v0 5.278c0 0.239 0.053 0.414 0.159 0.526 0.106 0.114 0.239 0.171 0.399 0.171v0c0.305 0 0.611-0.093 0.916-0.279v0 1.375c-0.451 0.266-0.963 0.398-1.534 0.398v0c-0.571 0-0.996-0.163-1.274-0.49-0.279-0.324-0.432-0.771-0.458-1.342v0c-0.823 1.222-2.012 1.832-3.566 1.832v0c-1.115 0-1.948-0.243-2.497-0.729-0.552-0.483-0.829-1.249-0.829-2.298v0c0-0.823 0.212-1.471 0.638-1.944 0.425-0.47 1.129-0.811 2.111-1.024 0.983-0.212 2.337-0.319 4.063-0.319v0-0.936c0-0.677-0.199-1.153-0.598-1.426-0.398-0.271-0.976-0.406-1.732-0.406v0c-0.717 0-1.275 0.139-1.673 0.418-0.398 0.279-0.598 0.671-0.598 1.175v0 0.239h-1.832c-0.027-0.186-0.04-0.405-0.04-0.657v0c0-0.465 0.186-0.903 0.558-1.315 0.372-0.412 0.876-0.741 1.513-0.987 0.637-0.244 1.341-0.366 2.111-0.367v0zM127.212 242.34c-1.394 0-2.446 0.069-3.155 0.207-0.712 0.141-1.187 0.351-1.426 0.63-0.239 0.279-0.359 0.664-0.359 1.155v0c0 0.916 0.697 1.374 2.092 1.374v0c0.491 0 0.956-0.122 1.394-0.366 0.438-0.247 0.79-0.596 1.056-1.048 0.266-0.451 0.398-0.969 0.398-1.553v0zM134.94 233.577v3.246h2.37v1.494h-2.37v6.075c0 0.478 0.093 0.823 0.279 1.035 0.186 0.212 0.471 0.319 0.856 0.319v0c0.345 0 0.757-0.1 1.235-0.299v0 1.394c-0.478 0.239-1.095 0.359-1.852 0.359v0c-0.783 0-1.377-0.232-1.781-0.697-0.406-0.465-0.609-1.202-0.61-2.211v0-5.975h-1.115v-1.494h1.175l0.638-3.246zM143.723 236.624c0.837 0 1.577 0.175 2.223 0.526 0.643 0.353 1.143 0.855 1.502 1.506 0.359 0.651 0.538 1.407 0.537 2.27v0 1.414h-7.11c0.027 1.076 0.279 1.905 0.757 2.49 0.478 0.584 1.188 0.876 2.131 0.876v0c0.837 0 1.454-0.246 1.852-0.737 0.398-0.491 0.598-1.076 0.598-1.752v0h1.772c0 0.797-0.182 1.494-0.545 2.091-0.366 0.598-0.871 1.062-1.514 1.394-0.645 0.332-1.38 0.498-2.203 0.498v0h-0.08c-1.434 0-2.565-0.462-3.393-1.386-0.831-0.921-1.247-2.152-1.247-3.693v0-0.398c0-1.009 0.186-1.899 0.557-2.669 0.372-0.77 0.903-1.368 1.594-1.793 0.69-0.425 1.5-0.637 2.43-0.637v0zM143.624 238.118c-0.757 0-1.37 0.232-1.841 0.697-0.473 0.465-0.762 1.155-0.868 2.071v0h5.218v-0.239c0-0.757-0.228-1.368-0.685-1.832-0.459-0.465-1.068-0.697-1.824-0.697zM150.435 244.79h2.012v2.211h-2.012zM164.098 233.338h2.151l5.338 13.663h-2.111l-1.155-2.968h-6.533l-1.135 2.968h-1.893zM167.643 242.261l-2.509-6.573h-0.12l-2.529 6.573zM177.303 236.624c0.81 0 1.538 0.175 2.183 0.526 0.643 0.353 1.143 0.848 1.502 1.486 0.359 0.637 0.538 1.368 0.538 2.191v0h-1.853c0-0.823-0.208-1.48-0.625-1.972-0.42-0.491-1.021-0.737-1.804-0.737v0c-0.823 0-1.477 0.275-1.96 0.824-0.486 0.552-0.729 1.307-0.729 2.263v0 1.076c0 1.155 0.239 2.014 0.717 2.577 0.478 0.566 1.155 0.848 2.031 0.848v0c0.81 0 1.418-0.243 1.825-0.729 0.404-0.483 0.605-1.137 0.605-1.96v0h1.793c0 1.275-0.381 2.29-1.144 3.048-0.765 0.757-1.785 1.135-3.059 1.135v0h-0.159c-0.903 0-1.693-0.208-2.37-0.625-0.677-0.42-1.198-1.008-1.562-1.765-0.366-0.757-0.55-1.64-0.55-2.649v0-0.478c0-1.009 0.186-1.896 0.558-2.661 0.372-0.762 0.896-1.353 1.574-1.773 0.677-0.417 1.454-0.625 2.33-0.625v0zM188.138 236.624c0.81 0 1.538 0.175 2.183 0.526 0.643 0.353 1.143 0.848 1.502 1.486 0.359 0.637 0.538 1.368 0.538 2.191v0h-1.853c0-0.823-0.208-1.48-0.625-1.972-0.42-0.491-1.021-0.737-1.805-0.737v0c-0.823 0-1.477 0.275-1.959 0.824-0.486 0.552-0.729 1.307-0.729 2.263v0 1.076c0 1.155 0.239 2.014 0.717 2.577 0.478 0.566 1.155 0.848 2.031 0.848v0c0.81 0 1.418-0.243 1.825-0.729 0.404-0.483 0.605-1.137 0.605-1.96v0h1.793c0 1.275-0.381 2.29-1.144 3.048-0.765 0.757-1.785 1.135-3.059 1.135v0h-0.159c-0.903 0-1.693-0.208-2.37-0.625-0.677-0.42-1.198-1.008-1.562-1.765-0.366-0.757-0.55-1.64-0.55-2.649v0-0.478c0-1.009 0.186-1.896 0.558-2.661 0.372-0.762 0.896-1.353 1.573-1.773 0.677-0.417 1.454-0.625 2.331-0.625v0zM199.073 236.624c0.837 0 1.577 0.175 2.222 0.526 0.643 0.353 1.143 0.855 1.502 1.506 0.359 0.651 0.538 1.407 0.538 2.27v0 1.414h-7.111c0.027 1.076 0.279 1.905 0.757 2.49 0.478 0.584 1.188 0.876 2.131 0.876v0c0.837 0 1.454-0.246 1.853-0.737 0.398-0.491 0.598-1.076 0.597-1.752v0h1.773c0 0.797-0.182 1.494-0.546 2.091-0.366 0.598-0.871 1.062-1.514 1.394-0.645 0.332-1.38 0.498-2.202 0.498v0h-0.08c-1.434 0-2.565-0.462-3.394-1.386-0.831-0.921-1.247-2.152-1.247-3.693v0-0.398c0-1.009 0.186-1.899 0.558-2.669 0.372-0.77 0.903-1.368 1.593-1.793 0.69-0.425 1.5-0.637 2.43-0.637v0zM198.973 238.118c-0.757 0-1.372 0.232-1.844 0.697-0.47 0.465-0.758 1.155-0.865 2.071v0h5.219v-0.239c0-0.757-0.228-1.368-0.686-1.832-0.459-0.465-1.068-0.697-1.824-0.697zM206.143 232.661h1.872v14.34h-1.872zM215.484 236.624c0.837 0 1.577 0.175 2.223 0.526 0.643 0.353 1.143 0.855 1.502 1.506 0.359 0.651 0.538 1.407 0.537 2.27v0 1.414h-7.11c0.027 1.076 0.279 1.905 0.757 2.49 0.478 0.584 1.188 0.876 2.131 0.876v0c0.837 0 1.454-0.246 1.852-0.737 0.398-0.491 0.598-1.076 0.598-1.752v0h1.772c0 0.797-0.182 1.494-0.545 2.091-0.366 0.598-0.871 1.062-1.514 1.394-0.645 0.332-1.38 0.498-2.203 0.498v0h-0.079c-1.434 0-2.565-0.462-3.394-1.386-0.831-0.921-1.247-2.152-1.247-3.693v0-0.398c0-1.009 0.186-1.899 0.558-2.669 0.372-0.77 0.903-1.368 1.593-1.793 0.69-0.425 1.5-0.637 2.43-0.637v0zM215.385 238.118c-0.757 0-1.372 0.232-1.845 0.697-0.47 0.465-0.758 1.155-0.864 2.071v0h5.218v-0.239c0-0.757-0.228-1.368-0.685-1.832-0.459-0.465-1.068-0.697-1.824-0.697zM227.056 236.624c0.943 0 1.68 0.301 2.211 0.904 0.531 0.605 0.797 1.366 0.797 2.283v0l-0.06 0.757h-1.653v-0.439c0-0.398-0.1-0.75-0.299-1.055-0.199-0.305-0.451-0.542-0.757-0.709-0.305-0.165-0.611-0.247-0.916-0.247v0c-0.637 0-1.135 0.252-1.494 0.757-0.359 0.505-0.538 1.188-0.538 2.051v0 6.075h-1.872v-10.178h1.335l0.278 1.514c0.08-0.266 0.259-0.531 0.538-0.797 0.279-0.266 0.628-0.485 1.048-0.657 0.417-0.173 0.878-0.259 1.382-0.259zM236.238 236.624c1.341 0 2.341 0.266 2.999 0.797 0.656 0.531 0.984 1.301 0.984 2.31v0 5.278c0 0.239 0.053 0.414 0.16 0.526 0.106 0.114 0.239 0.171 0.398 0.171v0c0.305 0 0.611-0.093 0.916-0.279v0 1.375c-0.451 0.266-0.963 0.398-1.534 0.398v0c-0.571 0-0.996-0.163-1.274-0.49-0.279-0.324-0.432-0.771-0.458-1.342v0c-0.823 1.222-2.012 1.832-3.565 1.832v0c-1.115 0-1.948-0.243-2.498-0.729-0.552-0.483-0.829-1.249-0.829-2.298v0c0-0.823 0.212-1.471 0.638-1.944 0.425-0.47 1.129-0.811 2.111-1.024 0.983-0.212 2.337-0.319 4.063-0.319v0-0.936c0-0.677-0.199-1.153-0.597-1.426-0.398-0.271-0.976-0.406-1.733-0.406v0c-0.717 0-1.275 0.139-1.673 0.418-0.398 0.279-0.598 0.671-0.598 1.175v0 0.239h-1.832c-0.027-0.186-0.04-0.405-0.04-0.657v0c0-0.465 0.186-0.903 0.558-1.315 0.372-0.412 0.876-0.741 1.513-0.987 0.637-0.244 1.341-0.366 2.112-0.367v0zM238.349 242.34c-1.394 0-2.446 0.069-3.155 0.207-0.712 0.141-1.187 0.351-1.426 0.63-0.239 0.279-0.359 0.664-0.358 1.155v0c0 0.916 0.697 1.374 2.091 1.374v0c0.491 0 0.956-0.122 1.394-0.366 0.438-0.247 0.79-0.596 1.056-1.048 0.266-0.451 0.398-0.969 0.398-1.553v0zM246.077 233.577v3.246h2.37v1.494h-2.37v6.075c0 0.478 0.093 0.823 0.279 1.035 0.186 0.212 0.471 0.319 0.856 0.319v0c0.345 0 0.757-0.1 1.235-0.299v0 1.394c-0.478 0.239-1.095 0.359-1.852 0.359v0c-0.783 0-1.377-0.232-1.781-0.697-0.406-0.465-0.609-1.202-0.609-2.211v0-5.975h-1.116v-1.494h1.175l0.638-3.246zM254.86 236.624c0.837 0 1.577 0.175 2.223 0.526 0.643 0.353 1.143 0.855 1.502 1.506 0.359 0.651 0.538 1.407 0.538 2.27v0 1.414h-7.111c0.027 1.076 0.279 1.905 0.757 2.49 0.478 0.584 1.188 0.876 2.131 0.876v0c0.837 0 1.454-0.246 1.852-0.737 0.398-0.491 0.598-1.076 0.598-1.752v0h1.773c0 0.797-0.182 1.494-0.546 2.091-0.366 0.598-0.871 1.062-1.514 1.394-0.645 0.332-1.38 0.498-2.203 0.498v0h-0.079c-1.434 0-2.565-0.462-3.394-1.386-0.831-0.921-1.247-2.152-1.247-3.693v0-0.398c0-1.009 0.186-1.899 0.558-2.669 0.372-0.77 0.903-1.368 1.593-1.793 0.69-0.425 1.5-0.637 2.43-0.637v0zM254.761 238.118c-0.757 0-1.37 0.232-1.841 0.697-0.473 0.465-0.762 1.155-0.868 2.071v0h5.218v-0.239c0-0.757-0.228-1.368-0.685-1.832-0.459-0.465-1.068-0.697-1.824-0.697zM261.572 244.79h2.012v2.211h-2.012zM271.65 233.338h8.963l-0.259 1.772h-6.752v4.024h6.115v1.772h-6.115v4.322h6.872l0.278 1.773h-9.102zM283.362 232.661h1.872v14.34h-1.872zM292.703 236.624c0.837 0 1.577 0.175 2.222 0.526 0.643 0.353 1.143 0.855 1.502 1.506 0.359 0.651 0.538 1.407 0.538 2.27v0 1.414h-7.11c0.027 1.076 0.279 1.905 0.756 2.49 0.478 0.584 1.188 0.876 2.131 0.876v0c0.837 0 1.454-0.246 1.853-0.737 0.398-0.491 0.598-1.076 0.597-1.752v0h1.773c0 0.797-0.182 1.494-0.546 2.091-0.366 0.598-0.872 1.062-1.517 1.394-0.643 0.332-1.376 0.498-2.199 0.498v0h-0.08c-1.434 0-2.567-0.462-3.398-1.386-0.829-0.921-1.243-2.152-1.243-3.693v0-0.398c0-1.009 0.186-1.899 0.558-2.669 0.372-0.77 0.903-1.368 1.593-1.793 0.69-0.425 1.5-0.637 2.43-0.637v0zM292.603 238.118c-0.757 0-1.37 0.232-1.84 0.697-0.473 0.465-0.762 1.155-0.869 2.071v0h5.219v-0.239c0-0.757-0.228-1.368-0.686-1.832-0.459-0.465-1.068-0.697-1.824-0.697zM306.167 236.823h1.832l-3.864 10.178h-1.992l-3.864-10.178h1.992l2.908 7.788h0.08zM313.894 236.624c1.341 0 2.341 0.266 3 0.797 0.656 0.531 0.984 1.301 0.984 2.31v0 5.278c0 0.239 0.053 0.414 0.159 0.526 0.106 0.114 0.239 0.171 0.398 0.171v0c0.305 0 0.611-0.093 0.917-0.279v0 1.375c-0.451 0.266-0.963 0.398-1.534 0.398v0c-0.571 0-0.996-0.163-1.275-0.49-0.279-0.324-0.432-0.771-0.458-1.342v0c-0.823 1.222-2.012 1.832-3.565 1.832v0c-1.115 0-1.948-0.243-2.497-0.729-0.552-0.483-0.829-1.249-0.829-2.298v0c0-0.823 0.212-1.471 0.637-1.944 0.425-0.47 1.129-0.811 2.112-1.024 0.983-0.212 2.337-0.319 4.063-0.319v0-0.936c0-0.677-0.199-1.153-0.598-1.426-0.398-0.271-0.976-0.406-1.733-0.406v0c-0.717 0-1.275 0.139-1.673 0.418-0.398 0.279-0.598 0.671-0.597 1.175v0 0.239h-1.833c-0.027-0.186-0.04-0.405-0.039-0.657v0c0-0.465 0.186-0.903 0.557-1.315 0.372-0.412 0.876-0.741 1.514-0.987 0.637-0.244 1.341-0.366 2.111-0.367v0zM316.006 242.34c-1.394 0-2.446 0.069-3.155 0.207-0.712 0.141-1.187 0.351-1.426 0.63-0.239 0.279-0.359 0.664-0.359 1.155v0c0 0.916 0.697 1.374 2.091 1.374v0c0.491 0 0.956-0.122 1.395-0.366 0.438-0.247 0.79-0.596 1.055-1.048 0.266-0.451 0.398-0.969 0.399-1.553v0zM323.733 233.577v3.246h2.371v1.494h-2.371v6.075c0 0.478 0.093 0.823 0.279 1.035 0.186 0.212 0.471 0.319 0.857 0.319v0c0.345 0 0.757-0.1 1.235-0.299v0 1.394c-0.478 0.239-1.095 0.359-1.853 0.359v0c-0.783 0-1.377-0.232-1.78-0.697-0.406-0.465-0.609-1.202-0.61-2.211v0-5.975h-1.115v-1.494h1.175l0.637-3.246zM332.517 236.624c0.837 0 1.576 0.175 2.219 0.526 0.645 0.353 1.147 0.855 1.505 1.506 0.359 0.651 0.538 1.407 0.538 2.27v0 1.414h-7.11c0.027 1.076 0.279 1.905 0.757 2.49 0.478 0.584 1.188 0.876 2.131 0.876v0c0.837 0 1.454-0.246 1.852-0.737 0.398-0.491 0.598-1.076 0.597-1.752v0h1.773c0 0.797-0.183 1.494-0.55 2.091-0.364 0.598-0.868 1.062-1.513 1.394-0.643 0.332-1.376 0.498-2.199 0.498v0h-0.08c-1.434 0-2.567-0.462-3.398-1.386-0.829-0.921-1.243-2.152-1.242-3.693v0-0.398c0-1.009 0.186-1.899 0.557-2.669 0.372-0.77 0.903-1.368 1.594-1.793 0.69-0.425 1.5-0.637 2.429-0.637v0zM332.417 238.118c-0.757 0-1.372 0.232-1.844 0.697-0.47 0.465-0.758 1.155-0.864 2.071v0h5.218v-0.239c0-0.757-0.23-1.368-0.689-1.832-0.457-0.465-1.064-0.697-1.821-0.697zM339.229 244.79h2.012v2.211h-2.012z"
                                          fill="#ffffff" fill-rule="nonzero" stroke="none" stroke-width="1"
                                          stroke-linecap="butt" stroke-linejoin="miter" stroke-miterlimit="10"
                                          stroke-dasharray="" stroke-dashoffset="0" font-family="none"
                                          font-weight="none" font-size="none" text-anchor="none"
                                          style="mix-blend-mode: normal" data-fill-palette-color="secondary"></path>
                                </g>
                            </g>
                            <g transform="matrix(1,0,0,1,26.601283706876103,35.92614410400391)">
                                <svg viewBox="0 0 286.9610373225759 173.04" height="173.04" width="286.9610373225759">
                                    <g>
                                        <svg viewBox="0 0 286.9610373225759 173.04" height="173.04"
                                             width="286.9610373225759">
                                            <g>
                                                <svg viewBox="0 0 316.416 190.80159854054332" height="173.04"
                                                     width="286.9610373225759">
                                                    <g transform="matrix(1,0,0,1,0,117.92304247855608)">
                                                        <svg viewBox="0 0 316.416 72.87855606198724"
                                                             height="72.87855606198724" width="316.416">
                                                            <g id="textblocktransform">
                                                                <svg viewBox="0 0 316.416 72.87855606198724"
                                                                     height="72.87855606198724" width="316.416"
                                                                     id="textblock">
                                                                    <g>
                                                                        <svg viewBox="0 0 316.416 72.87855606198724"
                                                                             height="72.87855606198724" width="316.416">
                                                                            <g transform="matrix(1,0,0,1,0,0)">
                                                                                <svg width="316.416"
                                                                                     viewBox="1.2999999523162842 -37.29999923706055 164.5399932861328 37.89999771118164"
                                                                                     height="72.87855606198724"
                                                                                     data-palette-color="#ffffff">
                                                                                    <path d="M27.7-29.05L17.8-29.05 17.8 0 11.2 0 11.2-29.05 1.3-29.05 1.3-34.9 27.7-34.9 27.7-29.05ZM51.95 0L48.4 0Q46.3 0 45.07-1.23 43.85-2.45 43.55-4.5L43.55-4.5 43.25-4.5Q42.6-1.95 40.6-0.68 38.6 0.6 35.65 0.6L35.65 0.6Q31.65 0.6 29.5-1.5 27.35-3.6 27.35-7.1L27.35-7.1Q27.35-11.15 30.25-13.13 33.15-15.1 38.5-15.1L38.5-15.1 42.95-15.1 42.95-17Q42.95-19.2 41.8-20.4 40.65-21.6 38.1-21.6L38.1-21.6Q35.85-21.6 34.47-20.63 33.1-19.65 32.15-18.3L32.15-18.3 28.35-21.7Q29.8-23.95 32.2-25.33 34.6-26.7 38.55-26.7L38.55-26.7Q43.85-26.7 46.6-24.3 49.35-21.9 49.35-17.4L49.35-17.4 49.35-5.1 51.95-5.1 51.95 0ZM37.8-4.05L37.8-4.05Q39.95-4.05 41.45-5 42.95-5.95 42.95-7.8L42.95-7.8 42.95-11.25 38.85-11.25Q33.85-11.25 33.85-8.05L33.85-8.05 33.85-7.2Q33.85-5.6 34.87-4.83 35.9-4.05 37.8-4.05ZM63.55 0L57.15 0 57.15-26.1 63.55-26.1 63.55-21.75 63.8-21.75Q64.6-23.85 66.32-25.28 68.05-26.7 71.1-26.7L71.1-26.7Q75.15-26.7 77.3-24.05 79.45-21.4 79.45-16.5L79.45-16.5 79.45 0 73.05 0 73.05-15.85Q73.05-18.65 72.05-20.05 71.05-21.45 68.75-21.45L68.75-21.45Q67.75-21.45 66.82-21.18 65.9-20.9 65.17-20.38 64.45-19.85 64-19.07 63.55-18.3 63.55-17.25L63.55-17.25 63.55 0ZM92.94 0L86.54 0 86.54-26.1 92.94-26.1 92.94-21.75 93.19-21.75Q93.94-23.8 95.59-25.25 97.24-26.7 100.19-26.7L100.19-26.7Q102.89-26.7 104.84-25.4 106.79-24.1 107.74-21.45L107.74-21.45 107.84-21.45Q108.54-23.65 110.62-25.18 112.69-26.7 115.84-26.7L115.84-26.7Q119.69-26.7 121.77-24.05 123.84-21.4 123.84-16.5L123.84-16.5 123.84 0 117.44 0 117.44-15.85Q117.44-21.45 113.24-21.45L113.24-21.45Q112.29-21.45 111.42-21.18 110.54-20.9 109.87-20.38 109.19-19.85 108.79-19.07 108.39-18.3 108.39-17.25L108.39-17.25 108.39 0 101.99 0 101.99-15.85Q101.99-21.45 97.79-21.45L97.79-21.45Q96.89-21.45 96.02-21.18 95.14-20.9 94.47-20.38 93.79-19.85 93.37-19.07 92.94-18.3 92.94-17.25L92.94-17.25 92.94 0ZM153.69 0L150.14 0Q148.04 0 146.82-1.23 145.59-2.45 145.29-4.5L145.29-4.5 144.99-4.5Q144.34-1.95 142.34-0.68 140.34 0.6 137.39 0.6L137.39 0.6Q133.39 0.6 131.24-1.5 129.09-3.6 129.09-7.1L129.09-7.1Q129.09-11.15 131.99-13.13 134.89-15.1 140.24-15.1L140.24-15.1 144.69-15.1 144.69-17Q144.69-19.2 143.54-20.4 142.39-21.6 139.84-21.6L139.84-21.6Q137.59-21.6 136.22-20.63 134.84-19.65 133.89-18.3L133.89-18.3 130.09-21.7Q131.54-23.95 133.94-25.33 136.34-26.7 140.29-26.7L140.29-26.7Q145.59-26.7 148.34-24.3 151.09-21.9 151.09-17.4L151.09-17.4 151.09-5.1 153.69-5.1 153.69 0ZM139.54-4.05L139.54-4.05Q141.69-4.05 143.19-5 144.69-5.95 144.69-7.8L144.69-7.8 144.69-11.25 140.59-11.25Q135.59-11.25 135.59-8.05L135.59-8.05 135.59-7.2Q135.59-5.6 136.62-4.83 137.64-4.05 139.54-4.05ZM162.09-29.9L162.09-29.9Q160.09-29.9 159.21-30.8 158.34-31.7 158.34-33.1L158.34-33.1 158.34-34.1Q158.34-35.5 159.21-36.4 160.09-37.3 162.09-37.3L162.09-37.3Q164.04-37.3 164.94-36.4 165.84-35.5 165.84-34.1L165.84-34.1 165.84-33.1Q165.84-31.7 164.94-30.8 164.04-29.9 162.09-29.9ZM158.89 0L158.89-26.1 165.29-26.1 165.29 0 158.89 0Z"
                                                                                          opacity="1"
                                                                                          transform="matrix(1,0,0,1,0,0)"
                                                                                          fill="#ffffff"
                                                                                          class="wordmark-text-0"
                                                                                          data-fill-palette-color="primary"
                                                                                          id="text-0"></path>
                                                                                </svg>
                                                                            </g>
                                                                        </svg>
                                                                    </g>
                                                                </svg>
                                                            </g>
                                                        </svg>
                                                    </g>
                                                    <g transform="matrix(1,0,0,1,106.62214350599537,0)">
                                                        <svg viewBox="0 0 103.17171298800926 100.71816447766638"
                                                             height="100.71816447766638" width="103.17171298800926">
                                                            <g>
                                                                <svg xmlns="http://www.w3.org/2000/svg"
                                                                     xmlns:xlink="http://www.w3.org/1999/xlink"
                                                                     version="1.1" x="0" y="0"
                                                                     viewBox="8 8.900001525878906 84.0999984741211 82.0999984741211"
                                                                     style="enable-background:new 0 0 100 100;"
                                                                     xml:space="preserve" height="100.71816447766638"
                                                                     width="103.17171298800926" class="icon-icon-0"
                                                                     data-fill-palette-color="accent" id="icon-0"><g fill="#ffffff" data-fill-palette-color="accent"><path d="M81 9c-6.1 0-11 4.9-11 11 0 1.2 0.2 2.4 0.6 3.6L54.3 39.9C53 39.3 51.5 39 50 39c-6.1 0-11 4.9-11 11s4.9 11 11 11 11-4.9 11-11c0-2.4-0.8-4.5-2-6.3l15.1-15.1C76 30.1 78.4 31 81 31c6.1 0 11-4.9 11-11S87.1 9 81 9zM50 55c-2.8 0-5-2.2-5-5s2.2-5 5-5 5 2.2 5 5S52.8 55 50 55zM81 25c-2.8 0-5-2.2-5-5s2.2-5 5-5 5 2.2 5 5S83.8 25 81 25z" fill="#ffffff" data-fill-palette-color="accent"></path><path
                                                                        d="M50 31c6.1 0 11-4.9 11-11S56.1 9 50 9s-11 4.9-11 11S43.9 31 50 31zM50 15c2.8 0 5 2.2 5 5s-2.2 5-5 5-5-2.2-5-5S47.2 15 50 15z"
                                                                        fill="#ffffff"
                                                                        data-fill-palette-color="accent"></path><path
                                                                        d="M81 39c-6.1 0-11 4.9-11 11s4.9 11 11 11 11-4.9 11-11S87.1 39 81 39zM81 55c-2.8 0-5-2.2-5-5s2.2-5 5-5 5 2.2 5 5S83.8 55 81 55z"
                                                                        fill="#ffffff"
                                                                        data-fill-palette-color="accent"></path><path
                                                                        d="M19 91c6.1 0 11-4.9 11-11s-4.9-11-11-11S8 73.9 8 80 12.9 91 19 91zM19 75c2.8 0 5 2.2 5 5s-2.2 5-5 5-5-2.2-5-5S16.2 75 19 75z"
                                                                        fill="#ffffff"
                                                                        data-fill-palette-color="accent"></path><path
                                                                        d="M81 69c-5 0-9.3 3.4-10.6 8h-9.9c-1.3-4.6-5.5-8-10.6-8-3 0-5.8 1.2-7.8 3.2l-15-15C29 55.3 30 52.8 30 50c0-5-3.4-9.3-8-10.6v-8.9c4.6-1.3 8-5.5 8-10.6 0-6.1-4.9-11-11-11S8 13.9 8 20c0 5 3.4 9.3 8 10.6v8.9C11.4 40.7 8 45 8 50c0 6.1 4.9 11 11 11 1.1 0 2.1-0.2 3.1-0.4l17.2 17.2C39.1 78.5 39 79.2 39 80c0 6.1 4.9 11 11 11 5 0 9.3-3.4 10.6-8h9.9c1.3 4.6 5.5 8 10.6 8 6.1 0 11-4.9 11-11S87.1 69 81 69zM14 20c0-2.8 2.2-5 5-5s5 2.2 5 5-2.2 5-5 5S14 22.8 14 20zM14 50c0-2.8 2.2-5 5-5s5 2.2 5 5-2.2 5-5 5S14 52.8 14 50zM50 85c-2.8 0-5-2.2-5-5s2.2-5 5-5 5 2.2 5 5S52.8 85 50 85zM81 85c-2.8 0-5-2.2-5-5s2.2-5 5-5 5 2.2 5 5S83.8 85 81 85z"
                                                                        fill="#ffffff"
                                                                        data-fill-palette-color="accent"></path></g></svg>
                                                            </g>
                                                        </svg>
                                                    </g>
                                                    <g></g>
                                                </svg>
                                            </g>
                                        </svg>
                                    </g>
                                </svg>
                            </g>
                        </svg>
                    </g>
                    <defs></defs>
                    <mask id="d0116bdb-5c3c-459b-9264-c0aaee6e283e">
                        <g id="SvgjsG1936">
                            <svg viewBox="0 0 340.1636047363281 244.8922882080078" height="244.8922882080078"
                                 width="340.1636047363281">
                                <g>
                                    <svg></svg>
                                </g>
                                <g>
                                    <svg viewBox="0 0 340.1636047363281 244.8922882080078" height="244.8922882080078"
                                         width="340.1636047363281">
                                        <g transform="matrix(1,0,0,1,-27.678190231323242,-2.3077392578125)">
                                            <path xmlns="http://www.w3.org/2000/svg"
                                                  d="M27.678 244.892v-242.584h340.164v242.584l-8.72 0 0-5.96h2.759v-230.664h-328.242v230.664h16.478l0 5.96z"
                                                  fill="black" fill-rule="nonzero" stroke="none" stroke-width="1"
                                                  stroke-linecap="butt" stroke-linejoin="miter" stroke-miterlimit="10"
                                                  stroke-dasharray="" stroke-dashoffset="0" font-family="none"
                                                  font-weight="none" font-size="none" text-anchor="none"
                                                  style="mix-blend-mode: normal"></path>
                                            <g></g>
                                        </g>
                                        <g transform="matrix(1,0,0,1,26.601283706876103,35.92614410400391)">
                                            <svg viewBox="0 0 286.9610373225759 173.04" height="173.04"
                                                 width="286.9610373225759">
                                                <g>
                                                    <svg viewBox="0 0 286.9610373225759 173.04" height="173.04"
                                                         width="286.9610373225759">
                                                        <g>
                                                            <svg viewBox="0 0 316.416 190.80159854054332"
                                                                 height="173.04" width="286.9610373225759">
                                                                <g transform="matrix(1,0,0,1,0,117.92304247855608)">
                                                                    <svg viewBox="0 0 316.416 72.87855606198724"
                                                                         height="72.87855606198724" width="316.416">
                                                                        <g id="SvgjsG1935">
                                                                            <svg viewBox="0 0 316.416 72.87855606198724"
                                                                                 height="72.87855606198724"
                                                                                 width="316.416" id="SvgjsSvg1934">
                                                                                <g>
                                                                                    <svg viewBox="0 0 316.416 72.87855606198724"
                                                                                         height="72.87855606198724"
                                                                                         width="316.416">
                                                                                        <g transform="matrix(1,0,0,1,0,0)">
                                                                                            <svg width="316.416"
                                                                                                 viewBox="1.2999999523162842 -37.29999923706055 164.5399932861328 37.89999771118164"
                                                                                                 height="72.87855606198724"
                                                                                                 data-palette-color="#ffffff"></svg>
                                                                                        </g>
                                                                                    </svg>
                                                                                </g>
                                                                            </svg>
                                                                        </g>
                                                                    </svg>
                                                                </g>
                                                                <g transform="matrix(1,0,0,1,106.62214350599537,0)">
                                                                    <svg viewBox="0 0 103.17171298800926 100.71816447766638"
                                                                         height="100.71816447766638"
                                                                         width="103.17171298800926">
                                                                        <g>
                                                                            <svg xmlns="http://www.w3.org/2000/svg"
                                                                                 xmlns:xlink="http://www.w3.org/1999/xlink"
                                                                                 version="1.1" x="0" y="0"
                                                                                 viewBox="8 8.900001525878906 84.0999984741211 82.0999984741211"
                                                                                 style="enable-background:new 0 0 100 100;"
                                                                                 xml:space="preserve"
                                                                                 height="100.71816447766638"
                                                                                 width="103.17171298800926"
                                                                                 class="icon-icon-0"
                                                                                 data-fill-palette-color="accent"
                                                                                 id="SvgjsSvg1932"></svg>
                                                                        </g>
                                                                    </svg>
                                                                </g>
                                                                <g></g>
                                                            </svg>
                                                        </g>
                                                    </svg>
                                                </g>
                                            </svg>
                                        </g>
                                    </svg>
                                </g>
                                <defs></defs>
                            </svg>
                        </g>
                    </mask>
                    <linearGradient x1="0.054" x2="0.941" y1="0.5" y2="0.5" id="d915257c-e6ba-4b6c-8367-4fe7657a4033">
                        <stop stop-color="#0f3054" offset="0"></stop>
                        <stop stop-color="#3b8dcb" offset="0.498"></stop>
                        <stop stop-color="#0f3054" offset="1"></stop>
                    </linearGradient>
                    <rect width="340.16400146484375" height="244.8922882080078"
                          fill="url(#d915257c-e6ba-4b6c-8367-4fe7657a4033)"
                          mask="url(#d0116bdb-5c3c-459b-9264-c0aaee6e283e)" data-fill-palette-color="quaternary"></rect>
                </svg>
                <rect width="340.1636047363281" height="244.8922882080078" fill="none" stroke="none"
                      visibility="hidden"></rect>
            </g>
        </svg>
    </g>
</svg>